<?xml version="1.0" encoding="UTF-8"?>
<svg id="Layer_1" data-name="Layer 1" xmlns="http://www.w3.org/2000/svg" viewBox="0 0 1010.53 356.37">
  <defs>
    <style>
      .cls-1 {
        font-family: MyriadConceptRoman-Black, 'Myriad Variable Concept';
        font-size: 39.11px;
        font-variation-settings: 'wght' 900, 'wdth' 100;
        font-weight: 800;
      }

      .cls-1, .cls-2 {
        fill: #27a896;
      }

      .cls-2, .cls-3 {
        stroke-width: 0px;
      }

      .cls-3 {
        fill: #fff;
      }
    </style>
  </defs>
  <path class="cls-2" d="M194.25,301.75c-1.41-.36-5.01-1.47-7.89-4.84-2.51-2.94-3.17-6.06-3.4-7.24-.25-1.28-.3-2.54-.3-3.82,0-29.29.04-58.58-.04-87.88-.02-5.2-.61-10.4-1.17-15.59-.98-8.98-3.05-17.72-5.66-26.33-1.29-4.24-2.94-8.36-4.72-12.42-3.29-7.51-7.37-14.58-12.07-21.3-4.74-6.77-10.27-12.87-16.35-18.42-5.04-4.61-10.57-8.64-16.48-12.11-.82-.48-1.12-1.11-1.11-2.08.04-11.46.02-22.92.02-34.38,0-1.81.02-1.83,1.59-1.03,7.04,3.55,13.48,8.01,19.74,12.76,7.86,5.97,15.05,12.67,21.73,19.89,9.41,10.17,17.62,21.24,24.44,33.35,5.36,9.52,9.81,19.43,13.09,29.84,2.27,7.21,3.98,14.56,5.06,22.07.88,6.13,1.34,12.27,1.51,18.44.04,1.42.9,1.17,1.73,1.17,11.37,0,22.73,0,34.1,0,2.42,0,2.33,0,1.95,2.45-.45,2.9-.44,5.84-.46,8.78-.04,5.13.22,10.22,1.27,15.26.25,1.21-.05,1.82-1.54,1.81-11.37-.06-22.73,0-34.1-.07-1.47,0-1.53.44-1.18,1.64,2.77,9.6,7.08,18.42,13.23,26.3,5.28,6.77,11.69,12.25,19.1,16.59,7.84,4.6,16.31,7.41,25.26,8.78,4.86.74,9.8,1.04,14.71.66,10.15-.78,19.88-3.26,28.88-8.16,5.95-3.23,11.35-7.23,16.02-12.15,1.39-1.47,2.66-3.06,3.89-4.66.5-.66.98-1.04,1.84-1.02,5.83.12,11.66-.34,17.49-.39,3.95-.03,7.91-.21,11.86-.26,1.12-.02,1.42.16.88,1.33-3.6,7.78-7.85,15.17-13.27,21.83-6.53,8.02-14.25,14.67-23.29,19.79-2.47,1.4-11.89,6.56-25.61,9.32-12.08,2.43-21.57,1.82-27.24,1.41-7.04-.51-13.11-1.61-17.95-2.78-9.6-2.31-18.78-5.73-27.38-10.62-5.54-3.15-10.71-6.8-15.23-11.35-2.21-2.22-4.15-4.65-6-7.29-.38.68-.23,1.21-.23,1.72-.01,9.48-.01,18.95,0,28.43,0,.87-.08,1.7-.33,2.53-5.47,0-10.94,0-16.41,0Z"/>
  <path class="cls-3" d="M156.93,301.75c-1.93-.75-3.87-1.42-5.43-2.91-2.54-2.43-3.48-5.43-3.49-8.83-.04-18.9.05-37.79-.17-56.69-.13-10.75.08-21.52-.29-32.26-.3-8.62-1.95-17.07-4.43-25.34-3.73-12.42-9.3-23.89-17.54-33.99-.36-.44-.53-.89-.53-1.46.01-12.37.01-24.73.02-37.1,0-.14.08-.28.16-.56,2.41,1.22,4.47,2.81,6.47,4.47,7.73,6.4,14.15,13.97,19.83,22.2,10.69,15.5,17.8,32.48,21.07,51.03,1.1,6.27,1.66,12.61,1.67,18.98.03,33.46.01,66.92.01,100.38,0,.7.02,1.39.03,2.09-5.79,0-11.58,0-17.37,0Z"/>
  <path class="cls-2" d="M465.75,301.75c-1.75-.79-4.49-2.39-6.11-5.45-.83-1.57-1.23-3-1.37-4.62-.21-2.57-.23-5.12-.23-7.68-.03-17.78.19-35.56-.1-53.33-.16-10.06.05-20.11-.3-30.16-.26-7.45-1.65-14.79-3.6-21.99-2.02-7.44-4.67-14.65-8.3-21.47-2.86-5.38-6.04-10.56-10-15.22-.42-.49-.57-.98-.57-1.6,0-12.32,0-24.63.01-36.95,0-.15.05-.31.11-.63,2.4.98,4.33,2.6,6.23,4.17,8.66,7.1,15.7,15.65,21.82,24.96,8.5,12.93,14.59,26.93,18.06,42.01,1.18,5.12,1.95,10.32,2.41,15.58.49,5.6.59,11.19.59,16.79,0,31.86,0,63.72,0,95.58h-18.66Z"/>
  <path class="cls-3" d="M357.04,301.46c-3.01,0-6.03,0-9.04,0-6.21-.35-12.32-1.35-18.56-2.66,1.08-1.03,2.34-1.5,3.46-2.13,9.52-5.27,17.85-11.97,24.76-20.41.47-.57,1.01-.83,1.76-.93,11.94-1.51,22.78-5.83,32.33-13.14,15.15-11.59,24.67-26.72,27.67-45.61,3.16-19.94-1.74-37.95-14.44-53.6-10.8-13.31-24.84-21.51-41.87-24.14-21.53-3.33-40.58,2.38-56.75,16.88-11.88,10.65-19.17,24.07-21.38,39.91-3.18,22.74,3.43,42.55,18.75,59.55,1.76,1.95,3.69,3.72,5.73,5.36.8.65,1.05,1.03-.04,1.66-5.87,3.4-12.17,5.46-18.93,6.15-3.09.32-6.19.41-9.29.57-.82.04-1.36-.19-1.92-.83-11.01-12.5-17.49-27.14-20.69-43.34-1.63-8.27-2.29-16.64-1.86-25.05.85-16.72,5.59-32.29,14.63-46.42,12.73-19.88,30.4-33.41,52.97-40.45,7.27-2.27,14.74-3.5,22.37-3.95,17.77-1.04,34.46,2.65,50.13,11.01,7.46,3.98,14.2,8.95,20.31,14.81,14.02,13.44,23.17,29.65,27.8,48.45,1.81,7.34,2.63,14.8,2.87,22.36.28,9.04.14,18.09.29,27.13.39,22.75.16,45.5.22,68.26,0,.16-.04.32-.06.48-5.87.02-11.73.04-17.59.06-3.47-.65-5.75-2.93-7.63-5.69-2.14-3.12-3.24-6.59-3.22-10.4.02-4.21,0-8.41,0-13.1-16.94,18.97-38.04,28.05-62.79,29.21Z"/>
  <path class="cls-2" d="M331.83,220.13c-12.43,0-24.86-.02-37.3.03-1.4,0-1.89-.43-2.23-1.77-1.18-4.58-1.65-9.25-1.49-13.92.13-3.8.43-7.64,1.67-11.33.34-1,.84-1.31,1.85-1.31,25.08.02,50.16.02,75.23,0,.82,0,1.47.2,1.95.86,3.04,4.18,5.35,8.65,5.11,14-.21,4.76-2.27,8.82-5.06,12.56-.63.85-1.49.88-2.44.87-12.43-.02-24.86-.01-37.3-.01Z"/>
  <path class="cls-2" d="M729.63,178.26c3.32-6.94,7.91-13.33,13.73-19.15,13.4-13.39,29.94-20.22,48.87-20.14,26.79.12,50.84,15.63,61.99,39.28h30.32c-2.71-9.03-6.67-17.55-11.95-25.51-3.99-6.01-8.62-11.48-13.86-16.47-3.8-3.62-7.8-6.96-12.12-9.92-8.84-6.06-18.44-10.56-28.79-13.39-6.9-1.88-13.91-3.13-21.09-3.35-3.14-.1-6.27-.13-9.41,0-2.93.11-5.87.32-8.75.76-6.75,1.03-13.35,2.65-19.8,4.99-11.91,4.33-22.48,10.82-31.84,19.28-5.8,5.24-10.89,11.15-15.22,17.68-5.34,8.05-9.43,16.69-12.23,25.93h30.16Z"/>
  <path class="cls-3" d="M653.84,233.74c-10.2,25.07-35.03,43.05-64.11,42.94-28.39-.1-53.15-17.8-63.42-42.94h-28.76c.07.21.11.43.18.64,8.53,26.65,25.36,46.24,50.46,58.66,3.43,1.7,6.93,3.16,10.5,4.4,2.92,1.01,12.18,4.06,24.8,4.9,10.82.72,19.38-.5,23.7-1.27,18-3.2,30.52-10.72,34.98-13.58,8.16-5.22,15.52-11.78,22.06-19.69,8.77-10.62,14.89-21.99,18.49-34.04h-28.88Z"/>
  <path class="cls-2" d="M855.71,233.74c-10.2,25.07-35.03,43.05-64.11,42.94-28.39-.1-53.15-17.8-63.42-42.94h-28.76c.07.21.11.43.18.64,8.53,26.65,25.36,46.24,50.46,58.66,3.43,1.7,6.93,3.16,10.5,4.4,2.92,1.01,12.18,4.06,24.8,4.9,10.82.72,19.38-.5,23.7-1.27,18-3.2,30.52-10.72,34.98-13.58,8.16-5.22,15.52-11.78,22.06-19.69,8.77-10.62,14.89-21.99,18.49-34.04h-28.88Z"/>
  <path class="cls-3" d="M528.03,178.26c10.85-22.57,33.79-39.09,62.1-39.06,27.99.03,51.17,16.35,62.02,39.06h30.4c-4.24-14.5-11.9-27.36-22.56-38.63-8.13-8.6-17.6-15.43-28.32-20.53-17.5-8.32-35.88-11.06-55.03-8.51-11.83,1.58-23.01,5.33-33.43,11.17-16.75,9.39-29.71,22.52-38.65,39.5-2.91,5.53-5.22,11.2-6.98,16.99h30.44Z"/>
  <text class="cls-1" transform="translate(495.25 220.15)"><tspan x="0" y="0">RAYA BARTAR 1TA100</tspan></text>
</svg>
